<svg id="Capa_1" enable-background="new 0 0 511.94 511.94" height="512" viewBox="0 0 511.94 511.94" width="512" xmlns="http://www.w3.org/2000/svg"><g><path d="m480.392 275.825 21.213-21.213-254.372-254.612-21.213 21.453 24.251 24.251c-14.502 42.8-43.949 120.727-120.711 197.488-9.891 9.891-71.951 71.951-84.853 84.853-14.135 14.135-16.631 34.873-8.801 51.228l-12.412 12.412c-17.546 17.545-17.546 46.094 0 63.64l22.026 22.026c17.542 17.543 46.091 17.548 63.639 0l12.432-12.432c16.724 7.967 37.381 5.045 51.208-8.782l31.82-31.82 74.433 74.433c17.584 17.586 46.052 17.59 63.64 0 17.546-17.545 17.546-46.094 0-63.639l-74.274-74.275c73.203-69.027 145.922-96.438 186.722-110.262zm-413.658 180.312-22.026-22.026c-5.849-5.849-5.849-15.365 0-21.214l10.606-10.606 43.24 43.24-10.607 10.607c-5.849 5.847-15.363 5.847-21.213-.001zm84.853-21.213c-5.85 5.848-15.365 5.848-21.213 0l-64.453-64.453c-5.863-5.864-5.863-15.35 0-21.213l74.246-74.247 85.667 85.667zm169.893 42.613c-5.861 5.861-15.35 5.863-21.213 0l-74.434-74.433 21.214-21.213 74.433 74.433c5.848 5.848 5.848 15.364 0 21.213zm-74.283-137.922-.071-.071-.079-.079-85.812-85.812c66.466-70.224 96.607-139.77 112.604-184.382l157.757 157.757c-43.514 15.717-114.545 46.591-184.399 112.587z"/><path d="m147.193 345.678h30v30h-30z" transform="matrix(.707 -.707 .707 .707 -207.534 220.332)"/><path d="m342.074 0h30v60h-30z"/><path d="m432.074 121h60v30h-60z"/><path d="m383.648 37h114.853v30h-114.853z" transform="matrix(.707 -.707 .707 .707 92.415 327.113)"/></g></svg>