<svg version="1" xmlns="http://www.w3.org/2000/svg" width="666.667" height="666.667" viewBox="0 0 500.000000 500.000000"><path d="M247.7 2.6c-.1.1-3.8.5-8.1.8-4.3.4-8.2.8-8.5 1-.3.2-2.2.7-4.1 1-5.7.9-15.9 4.5-24.5 8.6-48.8 23.6-73.8 77.8-60.4 130.5 4 15.7 14.1 34.6 24.6 46.1 8.5 9.4 20 21.9 21 23 1.4 1.4.7 2.3-9.4 11.4-2.7 2.5-9.4 8.5-14.8 13.5-17.6 16-25.1 24.8-34.4 40.3-7.7 12.9-15.6 33.8-17.6 47.2-.4 2.5-1 5.4-1.2 6.5-.3 1.1-.7 9.2-.8 18-.5 31.5 6.9 57.1 24.1 83 20.6 31 54.2 54.1 89.4 61.4 3 .6 6.6 1.4 8 1.7 4.2 1.1 38.2 1.4 43.5.4 2.8-.5 6.8-1.1 9-1.5 2.2-.3 4.9-.9 6-1.2 1.1-.4 2.6-.8 3.4-.9 4.6-.8 19.1-6.5 27.6-10.9 15.5-8 23.8-14.1 41.8-30.8 5.6-5.1 11.4-10.5 12.8-11.8 10.2-9.3 30.3-27.6 39.9-36.5 3-2.8 8.2-7.5 11.4-10.5 18.8-17.1 20.6-19.2 24.4-26.7 3.3-6.8 3.7-8.3 3.8-16.3.3-13-3.2-21.8-12.1-30.5-11.3-10.9-27.3-14.6-41.7-9.6-8.1 2.9-13.2 6.8-32.7 25.1-2.1 2-7.8 7.2-12.6 11.6-4.9 4.4-10.3 9.3-12.1 11-1.7 1.6-7.4 6.8-12.5 11.5s-10.7 9.8-12.4 11.3c-1.6 1.6-6.6 6.1-10.9 10-4.4 4-8.9 8.1-10 9.2-5.5 5.3-13.7 10.2-22 13.2-29.4 10.6-63.4-3.1-77.4-31.2-5.2-10.4-6.3-15-6.7-27-.4-11.6 1.4-19.9 6.6-30.5 3.5-6.9 5.9-10.2 13.3-17.5 7.6-7.5 22.9-21.7 30.8-28.7 1.8-1.5 4.8-1.5 4.8.1 0 .3 2.8 3.6 6.3 7.3 3.4 3.6 10 10.7 14.5 15.7 11.4 12.4 19.1 16.7 31.8 17.8 25.2 2.1 46.5-20.8 43.3-46.6-1.3-9.8-4.6-15.6-16.2-28.3-4.2-4.7-8.9-9.8-10.3-11.4-1.4-1.6-4.6-5-7-7.5l-4.3-4.6 7.6-6.9c21.7-19.8 32.7-32.4 39.3-45.3 2.5-5 7.8-18.3 8.4-21.3.3-1.3 1-4.1 1.5-6.3 2.5-10.6 3.3-27.8 1.7-40.5-1.9-15.7-11.3-38.6-21.1-51.5-10.6-14-24-25.4-39-33.1-5.5-2.9-18.7-8.2-21.8-8.8-.6-.2-2.8-.6-4.7-1-9.2-1.9-14.7-2.6-22.3-2.9-3.7-.2-6.8-.2-7-.1zm17.9 85.5c2.5 1.3 6.6 4.5 9 7.2 11 12.2 10.2 31-1.8 42.9-6 5.9-21.8 20.2-22.8 20.6-.9.3-1.1.1-11.6-11.4-14-15.3-15.6-17.7-17-24.9-3.1-16.3 5.7-31.4 21.6-36.6 4.7-1.6 17.5-.3 22.6 2.2z"/></svg>