<?xml version="1.0" encoding="utf-8"?>
<!-- Generator: Adobe Illustrator 24.1.0, SVG Export Plug-In . SVG Version: 6.00 Build 0)  -->
<svg version="1.1" id="Layer_1" xmlns="http://www.w3.org/2000/svg" xmlns:xlink="http://www.w3.org/1999/xlink" x="0px" y="0px"
	 viewBox="0 0 492 153" style="enable-background:new 0 0 492 153;" xml:space="preserve">
<style type="text/css">
	.st0{fill:#009FE3;}
	.st1{fill:#FFFFFF;}
</style>
<g>
	<path class="st0" d="M54.8,49.5c1-0.9,2.2-1.3,3.4-1.4c1.5-0.1,3.1,0.5,4.2,1.7c2,2.2,1.8,5.5-0.3,7.5l-3.9,3.6L54.5,57
		C52.5,54.8,52.7,51.4,54.8,49.5 M91.5,88.6c-2.6-2.9-7.1-3.1-9.9-0.4l-15.2,13.9c-2.1,2-4.9,3-7.8,2.9c-2.9-0.1-5.6-1.4-7.6-3.5
		C46.8,97,47.1,90,51.6,86l5.6-5.2l4.7,5.2c2.6,2.9,7.1,3.1,9.9,0.4c2.9-2.6,3.1-7.1,0.4-10l-4.7-5.1l3.9-3.6
		c7.9-7.2,8.4-19.5,1.2-27.4c-7.2-7.9-19.5-8.4-27.4-1.2S36.8,58.6,44,66.5l3.6,3.9l-5.7,5.2c-10.2,9.3-10.9,25.2-1.5,35.3
		c4.5,4.9,10.7,7.8,17.3,8.1c0.8,0,1.5,0,2.2,0c5.9-0.3,11.4-2.5,15.8-6.5l15.3-14C93.9,95.9,94.1,91.4,91.5,88.6"/>
	<g>
		<path class="st1" d="M128.9,75.9c0,1.1-0.8,1.8-1.7,1.8H113v1.4c0,4.1,1.8,6.8,6,6.8c2.2,0,3.6-0.4,4.6-0.7
			c1.2-0.4,1.8-0.9,2.7-0.9c1,0,1.7,0.8,1.7,1.9c0,1-1.1,1.9-2.7,2.6c-1.8,0.7-4.3,1.1-6.6,1.1c-7.5,0-10.3-5.1-10.3-11v-4.8
			c0-5.9,3-11,10.3-11c7.6,0,10.2,4.9,10.2,11V75.9z M118.7,66.5c-4.1,0-5.8,2.7-5.8,6.7v0.9h11.5v-0.9
			C124.5,69.1,123,66.5,118.7,66.5z"/>
		<path class="st1" d="M146.3,89.4h-1.6c-7.2,0-9.1-4.5-9.1-11.3V67h-1.5c-1.1,0-2-0.9-2-1.9c0-1.1,0.9-2,2-2h1.5v-5.4
			c0-1.2,1-2.3,2.3-2.3s2.2,1,2.2,2.3v5.4h4.8c1.1,0,2,0.9,2,2c0,1-0.9,1.9-2,1.9h-4.8l0.1,11c0,5.2,0.8,7.2,4.9,7.2h1.1
			c1.1,0,2,0.9,2,2.1C148.3,88.5,147.4,89.4,146.3,89.4z"/>
		<path class="st1" d="M171,89.7c-1.3,0-2.3-1-2.3-2.3V72.8c0-3.3-0.9-5.6-4.9-5.6c-3,0-5.1,1.3-6.4,3.3v17c0,1.3-1,2.3-2.2,2.3
			c-1.3,0-2.3-1-2.3-2.3V69.9c0-2.1-0.6-2.7-1.6-3.3c-0.6-0.3-0.9-0.8-0.9-1.5c0-1.4,0.9-2,2.2-2c0.8,0,2,0.4,2.8,1.1
			c0.5,0.5,0.9,1.1,1.1,1.7c1.8-2,4.5-3.1,8.2-3.1c6.6,0,8.5,4.1,8.5,9.5l0.1,15.1C173.3,88.8,172.3,89.7,171,89.7z"/>
		<path class="st1" d="M200.2,75.9c0,1.1-0.8,1.8-1.7,1.8h-14.2v1.4c0,4.1,1.8,6.8,6,6.8c2.2,0,3.6-0.4,4.6-0.7
			c1.2-0.4,1.8-0.9,2.7-0.9c1,0,1.7,0.8,1.7,1.9c0,1-1.1,1.9-2.7,2.6c-1.8,0.7-4.3,1.1-6.6,1.1c-7.5,0-10.3-5.1-10.3-11v-4.8
			c0-5.9,3-11,10.3-11c7.6,0,10.2,4.9,10.2,11V75.9z M190.1,66.5c-4.1,0-5.8,2.7-5.8,6.7v0.9h11.5v-0.9
			C195.8,69.1,194.3,66.5,190.1,66.5z"/>
		<path class="st1" d="M217.6,89.4H216c-7.2,0-9.1-4.5-9.1-11.3V67h-1.5c-1.1,0-2-0.9-2-1.9c0-1.1,0.9-2,2-2h1.5v-5.4
			c0-1.2,1-2.3,2.3-2.3s2.2,1,2.2,2.3v5.4h4.8c1.1,0,2,0.9,2,2c0,1-0.9,1.9-2,1.9h-4.8l0.1,11c0,5.2,0.8,7.2,4.9,7.2h1.1
			c1.1,0,2,0.9,2,2.1C219.7,88.5,218.8,89.4,217.6,89.4z"/>
		<path class="st1" d="M242.4,75.9c0,1.1-0.8,1.8-1.7,1.8h-14.2v1.4c0,4.1,1.8,6.8,6,6.8c2.2,0,3.6-0.4,4.6-0.7
			c1.2-0.4,1.8-0.9,2.7-0.9c1,0,1.7,0.8,1.7,1.9c0,1-1.1,1.9-2.7,2.6c-1.8,0.7-4.3,1.1-6.6,1.1c-7.5,0-10.3-5.1-10.3-11v-4.8
			c0-5.9,3-11,10.3-11c7.6,0,10.2,4.9,10.2,11V75.9z M232.3,66.5c-4.1,0-5.8,2.7-5.8,6.7v0.9H238v-0.9
			C238,69.1,236.5,66.5,232.3,66.5z"/>
		<path class="st1" d="M262.8,67.6c-0.9,0-1.4-0.4-3.2-0.4c-2.2,0-4.9,0.7-5.8,4.7v15.5c0,1.3-1,2.3-2.2,2.3c-1.3,0-2.3-1-2.3-2.3
			V69.9c0-2.1-0.6-2.7-1.6-3.3c-0.6-0.3-0.9-0.8-0.9-1.5c0-1.2,0.8-2,2.3-2c2,0,3.5,1.6,4.2,3.2c2.2-3.1,5.3-3.5,7.2-3.5
			c2.1,0,4.6,0.7,4.6,2.4C265,66.6,264.2,67.6,262.8,67.6z"/>
		<path class="st1" d="M286,89.7c-0.8,0-1.7-0.3-2.3-0.8c-0.6-0.5-1.1-1.1-1.4-1.9c-1.9,2.1-5,2.7-7.3,2.7c-6.4,0-9.1-3.4-9.1-7.7
			v-0.4c0-4.3,3-7.6,9.6-7.6h5.9v-1.3c0-4.1-1-6.2-5.4-6.2c-1.8,0-3,0.3-4,0.7c-1.1,0.5-1.7,0.9-2.4,0.9c-1.1,0-1.9-0.8-1.9-1.8
			c0-1.1,1-1.9,2.5-2.5c1.9-0.8,4.2-1,6.1-1c7.4,0,9.6,3.6,9.6,10.4V83c0,2.1,0.5,2.7,1.5,3.2c0.6,0.4,0.9,0.9,0.9,1.6
			C288.3,89.1,287.4,89.7,286,89.7z M281.5,77.7H276c-4.4,0-5.5,1.9-5.5,4.1v0.4c0,2.2,1.2,4.1,5.4,4.1c3.5,0,5.6-1.8,5.6-5.5V77.7z
			"/>
		<path class="st1" d="M326.3,89.7c-0.8,0-1.5-0.4-2-0.9c-0.6-0.6-1-1.4-1.1-2.2c-1.9,2.6-5.1,3.1-7.4,3.1c-6.6,0-8.9-3.5-8.9-7.2
			v-0.4c0-3.8,2.3-7.2,8.9-7.2h7.2v-1.6c0-5.3-1.2-7.8-6.8-7.8c-2,0-3.2,0.3-4.3,0.7c-1.3,0.5-1.7,0.9-2.2,0.9s-1-0.4-1-1
			s0.8-1.2,2-1.7c1.6-0.6,3.4-0.9,5.5-0.9c7.3,0,8.9,3.9,8.9,9.7V84c0,2.4,0.3,3.1,1.5,3.5c0.6,0.2,0.8,0.6,0.8,1
			C327.5,89.3,327,89.7,326.3,89.7z M323.1,76.9h-7.2c-5.6,0-6.8,2.7-6.8,5.2v0.4c0,2.6,1.3,5.2,6.8,5.2c4.6,0,7.2-2.3,7.2-6.9V76.9
			z"/>
		<path class="st1" d="M348.7,88.2c-2,1.1-4.2,1.6-6.4,1.6c-6.7,0-9.7-4.7-9.7-11.3v-3.6c0-6,3.2-11.3,9.7-11.3
			c2.2,0,4.4,0.4,6.3,1.5c0.6,0.4,0.6,1,0.3,1.5c-0.3,0.4-0.8,0.6-1.4,0.2c-1.5-0.8-3.2-1.1-5.1-1.1c-4.9,0-7.6,3.9-7.6,9.2v3.6
			c0,5.8,2.5,9.2,7.6,9.2c1.9,0,3.6-0.4,5.3-1.3c0.7-0.4,1.1-0.1,1.5,0.3C349.3,87.2,349.3,87.9,348.7,88.2z"/>
		<path class="st1" d="M364.5,89.4h-1.1c-6.9,0-8-4.1-8-10.5V66h-2.1c-0.6,0-1-0.5-1-1c0-0.6,0.5-1,1-1h2.1v-7.2c0-0.6,0.5-1,1-1
			c0.6,0,1,0.5,1,1V64h5.7c0.6,0,1,0.5,1,1c0,0.6-0.5,1-1,1h-5.7l0.1,13c0,6.1,0.9,8.4,5.8,8.4h1.1c0.6,0,1,0.5,1,1
			S365.1,89.4,364.5,89.4z"/>
		<path class="st1" d="M371.2,53c0.9,0,1.7,0.7,1.7,1.7s-0.7,1.6-1.7,1.6c-0.9,0-1.7-0.7-1.7-1.6S370.2,53,371.2,53z M371.2,89.7
			c-0.6,0-1-0.5-1-1V64.6c0-0.6,0.5-1,1-1c0.6,0,1,0.4,1,1v24.1C372.2,89.3,371.7,89.7,371.2,89.7z"/>
		<path class="st1" d="M388.6,88.7c-0.3,0.8-0.8,1-1.4,1s-1-0.3-1.4-1c-3.2-8.2-6-16.1-8.5-23.8c-0.3-0.8,0.4-1.4,1-1.4
			c0.4,0,0.8,0.2,0.9,0.7c2.3,7.2,5,14.6,7.9,22.2c3-7.6,5.7-15.1,8-22.2c0.2-0.5,0.6-0.7,1-0.7c0.7,0,1.3,0.5,1,1.4
			C394.7,72.6,391.8,80.6,388.6,88.7z"/>
		<path class="st1" d="M418.8,89.7c-0.8,0-1.5-0.4-2-0.9c-0.6-0.6-1-1.4-1.1-2.2c-1.9,2.6-5.1,3.1-7.4,3.1c-6.6,0-8.9-3.5-8.9-7.2
			v-0.4c0-3.8,2.3-7.2,8.9-7.2h7.2v-1.6c0-5.3-1.2-7.8-6.8-7.8c-2,0-3.2,0.3-4.3,0.7c-1.3,0.5-1.7,0.9-2.2,0.9s-1-0.4-1-1
			s0.8-1.2,2-1.7c1.6-0.6,3.4-0.9,5.5-0.9c7.3,0,8.9,3.9,8.9,9.7V84c0,2.4,0.3,3.1,1.5,3.5c0.6,0.2,0.8,0.6,0.8,1
			C420,89.3,419.5,89.7,418.8,89.7z M415.5,76.9h-7.2c-5.6,0-6.8,2.7-6.8,5.2v0.4c0,2.6,1.3,5.2,6.8,5.2c4.6,0,7.2-2.3,7.2-6.9V76.9
			z"/>
		<path class="st1" d="M435.4,89.4h-1.1c-6.9,0-8-4.1-8-10.5V66h-2.1c-0.6,0-1-0.5-1-1c0-0.6,0.5-1,1-1h2.1v-7.2c0-0.6,0.5-1,1-1
			c0.6,0,1,0.5,1,1V64h5.7c0.6,0,1,0.5,1,1c0,0.6-0.5,1-1,1h-5.7l0.1,13c0,6.1,0.9,8.4,5.8,8.4h1.1c0.6,0,1,0.5,1,1
			S436,89.4,435.4,89.4z"/>
		<path class="st1" d="M458,76.3c0,0.7-0.5,1-1,1h-16v1.8c0,5.1,2.1,8.6,7.4,8.6c2.7,0,4.3-0.4,5.4-0.8c1.2-0.5,1.8-1.1,2.5-1.1
			c0.5,0,0.9,0.4,0.9,1s-0.9,1.3-2.3,1.9c-1.7,0.7-4,1.1-6.5,1.1c-6.9,0-9.5-4.9-9.5-10.7v-4.8c0-5.7,2.5-10.6,9.5-10.6
			c7.2,0,9.5,4.6,9.5,10.7v1.9H458z M448.5,65.6c-5.4,0-7.4,3.5-7.4,8.6v1.1H456v-1.1C456,69,454.2,65.6,448.5,65.6z"/>
	</g>
</g>
</svg>
